<svg version="1.1" id="Layer_1" xmlns="http://www.w3.org/2000/svg" xmlns:xlink="http://www.w3.org/1999/xlink" x="0px" y="0px"
    width="100%" viewBox="0 0 688 672" enable-background="new 0 0 688 672" xml:space="preserve">
    <path class="logo-path" fill="#000000" opacity="1.000000" stroke="none" 
	d="
M434.982788,271.897888 
	C424.785767,248.513763 416.143890,224.852814 404.178284,202.680161 
	C402.005219,198.653427 402.927795,195.141769 404.725189,191.310440 
	C413.280060,173.075150 422.429169,155.063339 429.139526,136.059875 
	C431.854553,128.370987 435.463867,124.801949 443.758209,122.052116 
	C468.847351,113.734276 493.922699,105.134056 518.270874,94.716995 
	C522.726440,92.810760 525.408081,94.502914 528.509766,97.106895 
	C544.080688,110.178917 558.962036,124.025146 574.182312,137.490128 
	C579.038635,141.786407 584.272583,145.668152 589.456909,149.576218 
	C592.093933,151.564072 593.194397,153.981918 593.274902,157.247421 
	C593.911133,183.055664 594.615845,208.862350 595.368469,234.667511 
	C595.513916,239.651352 595.993774,244.624710 596.253784,249.606308 
	C596.351257,251.474014 596.223755,253.526291 594.297546,254.386154 
	C592.175232,255.333542 590.939758,253.444275 589.734131,252.157074 
	C561.036072,221.516388 531.202271,191.953445 503.045166,160.798935 
	C500.481567,157.962433 497.454407,155.640396 493.612549,153.385056 
	C490.640137,158.164490 487.515442,162.640686 484.955292,167.419327 
	C479.612335,177.392258 474.819733,187.666733 469.277283,197.522797 
	C467.034515,201.511078 467.809296,204.154922 470.336823,207.332611 
	C482.467010,222.582977 494.406586,237.985138 506.553986,253.221664 
	C530.755371,283.577484 553.198486,315.270264 577.121948,345.835022 
	C582.354248,352.519806 587.768860,359.066467 593.253540,365.546356 
	C594.911621,367.505280 595.398438,369.566956 595.350220,371.975220 
	C595.177307,380.624695 595.870544,389.250977 595.476501,397.930786 
	C594.955444,409.405579 594.033813,421.124939 595.765015,432.356812 
	C597.171997,441.485382 593.082214,445.757477 587.672913,451.474854 
	C572.003540,468.036560 557.396240,485.598236 541.895203,502.325562 
	C527.497803,517.861938 514.819519,534.815735 500.830780,550.672241 
	C499.081604,552.654968 497.186066,554.768677 494.909973,555.977356 
	C488.175415,559.553406 487.607971,565.321960 488.591919,571.796082 
	C489.830750,579.947266 489.551086,580.308472 481.248962,580.308472 
	C432.922058,580.308350 384.595154,580.322449 336.268280,580.277039 
	C332.355347,580.273376 328.659241,580.531738 325.421234,583.103943 
	C323.080017,584.963806 320.591583,584.275635 318.520599,582.617798 
	C315.984833,580.588013 313.185699,580.279663 310.098877,580.281616 
	C249.272385,580.319702 188.445862,580.313965 127.619347,580.274841 
	C122.611610,580.271606 117.642448,580.491394 112.682518,581.206360 
	C109.874382,581.611206 107.625450,580.912964 107.535316,577.463013 
	C107.451263,574.245850 109.563362,573.722290 112.165276,573.626770 
	C119.984123,573.339722 127.806412,573.078369 135.615173,572.605713 
	C141.989304,572.219910 142.577637,571.419983 142.825241,565.105408 
	C143.967316,535.978577 143.186310,506.848389 143.065506,477.718475 
	C143.026855,468.394196 143.254013,459.062439 143.635040,449.745392 
	C143.838593,444.768005 142.427811,441.226929 137.823837,438.656616 
	C132.324341,435.586395 127.809448,430.903229 121.869743,428.454865 
	C120.561440,427.915588 119.594345,426.982483 119.458481,425.513458 
	C117.787277,407.442871 111.217857,390.653656 105.846039,373.557831 
	C97.506516,347.017242 87.694473,320.994446 78.116371,294.888184 
	C77.120171,292.172913 74.134132,288.614624 77.314095,286.307373 
	C80.328156,284.120514 83.097755,287.635712 85.583038,289.373474 
	C96.914680,297.296844 108.644104,304.555725 120.977631,310.806061 
	C128.025558,314.377716 135.369492,317.393250 142.284729,323.747375 
	C143.406876,301.816711 142.673965,281.587494 137.078339,262.025879 
	C139.847519,260.363953 141.042709,262.860352 142.939194,262.699646 
	C144.209183,261.341187 143.595184,259.591614 143.596497,258.030243 
	C143.623932,225.534012 143.984375,193.030869 143.407318,160.544571 
	C143.150162,146.068130 144.017868,131.579346 142.881195,117.111908 
	C142.211884,108.593033 139.429947,104.770210 131.196854,102.428688 
	C125.402107,100.780647 119.470886,100.105423 113.407166,100.468628 
	C111.018791,100.611687 107.949158,100.940613 107.840012,97.196724 
	C107.731377,93.470024 110.677567,92.974991 113.388351,92.951569 
	C121.552132,92.881042 129.717804,93.080147 137.882782,93.084236 
	C146.202087,93.088394 154.526230,92.775085 162.840012,92.963936 
	C221.656036,94.300003 280.479004,93.528847 339.298279,93.562607 
	C371.285461,93.580963 403.273041,93.033188 435.260315,92.730957 
	C437.773407,92.707207 440.458954,92.358467 441.739563,95.244850 
	C443.170074,98.469185 441.213226,100.631310 439.064178,102.616875 
	C425.234741,115.394157 411.853821,128.630051 398.740906,142.136658 
	C395.061127,145.926895 391.260620,149.501541 389.989288,155.170120 
	C389.239471,158.513458 385.829132,158.934967 383.055878,157.136826 
	C380.651978,155.578125 378.227448,155.216782 375.506744,155.223648 
	C341.177429,155.310394 306.847839,155.302597 272.518646,155.419434 
	C255.200333,155.478378 237.876877,156.259872 220.568619,155.313599 
	C215.666855,155.045624 214.328079,156.975845 214.179962,161.646774 
	C212.948898,200.464645 213.509262,239.291199 213.401047,278.113617 
	C213.366180,290.620728 213.511688,290.640594 225.753098,290.642487 
	C276.913849,290.650482 328.074615,290.644226 379.235352,290.651215 
	C381.245819,290.651489 383.095642,290.302521 385.032593,289.553375 
	C390.066772,287.606415 393.710419,290.629974 393.149445,295.905853 
	C391.453827,311.852478 392.150909,327.830475 392.709869,343.797668 
	C392.807373,346.582733 392.992218,349.181885 390.423279,350.966614 
	C387.762543,352.815094 385.460541,351.875763 383.167358,350.039886 
	C381.476807,348.686462 379.323090,349.200378 377.353302,349.200165 
	C350.525574,349.197418 323.697845,349.223022 296.870117,349.239868 
	C290.927246,349.243591 284.984344,349.240417 278.686676,349.240417 
	C280.882263,351.979340 283.948944,353.278320 286.853790,354.718842 
	C321.963013,372.129486 358.636047,385.760742 395.166870,399.772308 
	C412.432037,406.394470 429.825134,412.738892 447.459320,418.102753 
	C464.109711,423.167389 480.315063,430.137787 497.846771,432.139496 
	C499.638916,432.344147 501.400696,432.957336 503.569153,431.857758 
	C481.092072,378.423828 458.334991,325.242035 434.982788,271.897888 
M227.288361,454.218964 
	C237.523819,465.611084 247.655945,477.098145 258.016174,488.375610 
	C279.911774,512.209656 300.745575,536.835571 316.739380,565.177795 
	C317.514404,566.551208 318.097656,568.323669 320.666321,568.390015 
	C326.680634,560.554138 332.781281,552.467896 337.466156,543.456055 
	C347.602051,523.958862 357.565826,504.372253 367.597015,484.820679 
	C373.742554,472.842529 373.670990,472.970154 361.661682,466.536652 
	C314.553009,441.300171 266.129181,418.638641 218.980820,393.473572 
	C189.897415,377.950531 160.922424,362.273621 133.220322,344.356140 
	C129.339554,341.846161 125.503525,339.267059 121.646782,336.719940 
	C137.684967,358.672821 154.741318,379.567535 173.704605,398.737244 
	C191.625458,416.853180 209.343643,435.150024 227.288361,454.218964 
M205.652374,315.116791 
	C207.606262,309.322937 207.143127,303.486908 205.745575,297.700348 
	C205.275757,295.755157 204.164948,293.830872 205.273239,291.931427 
	C206.991211,288.987122 206.696350,285.832458 206.698547,282.690125 
	C206.726654,242.378571 206.628845,202.066284 206.885223,161.756256 
	C206.921951,155.981339 205.101501,151.876862 200.784561,148.393738 
	C190.928680,140.441528 181.653992,131.826874 172.290192,123.307228 
	C165.441650,117.076118 158.187759,111.290520 150.608261,104.878006 
	C150.478989,106.784142 150.318909,108.055542 150.317673,109.327087 
	C150.300476,126.983932 150.394852,144.641357 150.284744,162.297531 
	C150.083267,194.607849 150.856445,226.923859 149.740585,259.227783 
	C149.663361,261.463593 150.727478,262.991791 152.026184,264.552582 
	C160.130890,274.292938 168.605988,283.710297 178.122787,292.078125 
	C186.972977,299.859772 194.666031,309.011963 205.652374,315.116791 
M105.859329,353.756287 
	C112.906662,374.893646 119.819649,396.074280 125.665451,417.582306 
	C126.768112,421.639252 128.919739,424.720856 132.265961,427.229309 
	C149.720123,440.313416 167.105728,453.488861 184.531143,466.611389 
	C188.822128,469.842743 193.172623,472.995148 197.495758,476.183868 
	C184.803558,452.071716 171.869736,428.373901 161.972565,403.131531 
	C167.897385,408.456970 172.803070,414.561707 175.916931,421.578766 
	C182.627670,436.701385 190.547928,451.131531 199.422729,465.030090 
	C204.492065,472.969025 208.332733,481.725616 215.646164,488.231384 
	C229.463333,500.522705 244.038834,511.867218 258.438080,523.436584 
	C275.383942,537.052002 292.340027,550.654785 309.291687,564.263062 
	C303.654999,554.134094 298.057159,544.047913 291.047668,535.062927 
	C268.588348,506.273651 243.231949,479.996826 218.599625,453.099487 
	C198.812073,431.492432 175.674622,413.178162 157.025452,390.452576 
	C147.837067,379.255737 137.955368,368.644714 129.305954,356.986603 
	C117.428093,340.976959 104.668709,325.663605 91.233261,310.663696 
	C96.011383,324.780975 100.789497,338.898224 105.859329,353.756287 
M227.524887,391.890076 
	C276.724030,416.947784 325.923187,442.005463 375.444275,467.227112 
	C383.615265,452.881073 389.677032,437.858429 396.421478,423.447296 
	C291.110748,397.593292 189.930298,362.802887 97.404213,305.821472 
	C98.471184,308.004486 99.630539,309.832794 101.002037,311.485016 
	C106.950935,318.651428 112.040085,327.002441 120.269531,331.563019 
	C131.944473,338.032990 142.893204,345.614441 154.393326,352.307861 
	C178.144897,366.131989 202.566589,378.735687 227.524887,391.890076 
M566.390015,426.072052 
	C516.242065,356.321869 468.310760,285.009705 418.100769,216.722961 
	C417.845184,216.100113 418.066650,216.657944 418.301727,217.210022 
	C431.608582,248.458618 444.877594,279.720978 458.514435,310.830719 
	C475.760529,350.174347 492.481689,389.749390 509.194214,429.323853 
	C511.239563,434.167114 513.719849,436.345093 519.158569,437.170166 
	C536.310669,439.772125 553.529541,441.045441 570.831055,441.593628 
	C572.432068,441.644379 574.396973,442.050293 575.332886,440.240631 
	C576.132080,438.695251 575.025391,437.364777 574.119873,436.166901 
	C571.708252,432.976624 569.259033,429.814819 566.390015,426.072052 
M336.500122,100.321350 
	C319.022369,100.324303 301.522888,100.855179 284.074799,100.137421 
	C273.147705,99.687920 264.900543,103.893417 257.061768,110.639977 
	C244.534119,121.422050 234.007675,134.163300 222.198532,145.640640 
	C221.555069,146.266037 220.488800,146.898224 221.564392,148.669006 
	C223.539261,148.669006 225.834839,148.671585 228.130402,148.668640 
	C278.224823,148.604309 328.320038,149.076523 378.414398,148.406067 
	C382.212372,148.355225 382.907623,146.616180 382.903564,143.520996 
	C382.886932,130.870773 382.810211,118.218430 383.022064,105.571335 
	C383.092529,101.365265 381.477600,100.163757 377.448151,100.224030 
	C364.134644,100.423157 350.816498,100.312485 336.500122,100.321350 
M209.458267,326.100311 
	C187.937851,310.800415 168.622452,292.947479 149.801483,274.168030 
	C149.133057,290.990509 149.137665,307.433960 149.125992,323.877411 
	C149.124802,325.537842 149.792358,326.794617 151.237885,327.564606 
	C155.853500,330.023071 160.304993,332.836243 164.952667,334.479431 
	C164.278412,322.121765 159.367645,310.579987 159.254608,298.134308 
	C160.995850,298.310333 161.353287,299.136749 161.581940,299.893188 
	C164.986923,311.157776 168.855591,322.307953 170.328659,334.063110 
	C170.532913,335.692993 170.061081,337.627808 171.787079,338.577698 
	C179.279816,342.701080 186.835464,346.710144 194.747284,350.964569 
	C195.368500,348.732025 195.746826,347.372375 196.502396,344.657043 
	C198.094910,349.525391 200.041321,352.376251 204.036301,353.906555 
	C228.745773,363.371613 253.229675,373.469666 278.310089,381.905518 
	C319.930481,395.904602 361.789337,409.177948 404.783478,418.440460 
	C420.320740,421.787781 435.793793,425.591553 451.735199,426.742310 
	C434.166626,421.038208 417.058929,414.131104 399.663544,408.039093 
	C360.509674,394.327026 321.647980,379.613647 285.070374,360.151581 
	C267.465790,350.784576 250.458710,345.128998 230.792358,347.216980 
	C228.100113,347.502838 225.321854,346.800537 222.551575,344.902679 
	C226.112671,342.062622 230.162827,343.190094 234.899628,342.086578 
	C225.969757,336.479156 218.015076,331.484070 209.458267,326.100311 
M414.972809,515.407104 
	C464.847839,491.846405 515.861145,470.878906 566.593201,449.006622 
	C563.773987,448.138336 561.040649,447.687744 558.296204,447.319458 
	C541.333130,445.043060 524.380554,442.680725 507.398621,440.553925 
	C493.571259,438.822144 480.011230,435.018524 465.918213,435.289886 
	C462.878632,435.348450 460.623322,436.222626 458.505829,438.534576 
	C436.352936,462.722351 414.106506,486.824524 391.867065,510.932922 
	C384.251648,519.188354 376.583160,527.394836 368.938873,535.623596 
	C369.152039,535.889893 369.365173,536.156189 369.578308,536.422546 
	C384.483765,529.525513 399.389191,522.628479 414.972809,515.407104 
M542.572144,491.091949 
	C553.329590,478.492859 564.589111,466.314880 574.571228,452.997406 
	C571.843933,454.280518 569.338867,455.837585 566.785095,457.310242 
	C553.486206,464.979095 542.325256,475.856750 528.807861,483.113312 
	C489.358429,504.291077 449.791138,525.254944 409.158783,544.118652 
	C388.383392,553.763733 367.591278,563.372803 346.086639,573.331543 
	C371.233002,574.977478 395.395813,573.824402 418.919067,567.245789 
	C442.150177,560.748901 465.532440,554.875488 488.880402,548.851440 
	C493.074707,547.769287 496.451355,545.704834 499.247345,542.389709 
	C513.524658,525.461487 527.199219,508.023590 542.572144,491.091949 
M565.919250,395.499115 
	C553.560242,372.819580 539.570801,351.125854 525.825562,329.286774 
	C499.673859,287.735779 475.519867,244.909973 446.485657,205.189514 
	C443.860107,201.597672 441.592712,199.941498 437.138031,200.892471 
	C434.624176,201.429108 431.849823,200.612534 429.197968,200.665344 
	C424.689148,200.755066 420.209991,198.815399 415.015472,200.039139 
	C418.426086,205.548111 421.202332,210.635178 424.541077,215.321518 
	C439.416077,236.200562 454.366486,257.027161 469.449615,277.756317 
	C492.081604,308.860016 513.652283,340.696136 535.338745,372.456787 
	C548.574707,391.841400 561.915588,411.173218 577.165955,429.076691 
	C580.116943,432.541107 583.251587,435.862640 587.440918,438.747681 
	C587.903503,437.259277 588.575500,436.261963 588.310486,435.780273 
	C581.021973,422.536194 573.638123,409.344604 565.919250,395.499115 
M262.499939,573.691772 
	C278.228729,573.691772 293.957520,573.691772 310.786133,573.691772 
	C309.273407,572.057312 308.706268,571.269592 307.977417,570.682678 
	C291.645416,557.532104 275.327148,544.364014 258.922791,531.304077 
	C255.613480,528.669495 251.716553,527.309143 247.357971,527.339111 
	C237.869370,527.404419 228.379303,527.405762 218.891190,527.304688 
	C215.963364,527.273499 213.442474,527.981995 210.865952,529.429993 
	C200.163071,535.444824 191.493530,544.041321 182.146744,551.764709 
	C173.773514,558.683594 165.633255,565.884399 156.539780,573.690918 
	C192.311203,573.690918 226.905548,573.690918 262.499939,573.691772 
M150.292175,545.500000 
	C150.292175,553.047241 150.292175,560.594543 150.292175,568.121155 
	C153.062576,568.137756 154.227585,566.862549 155.477051,565.809631 
	C170.750549,552.938110 186.062286,540.110962 201.234482,527.120850 
	C204.746414,524.114014 206.563187,520.056458 206.710754,515.253235 
	C206.919891,508.446411 206.073303,501.594421 207.523270,494.834595 
	C207.938889,492.896942 206.754532,491.800690 205.361801,490.714813 
	C188.033051,477.203949 170.732620,463.656799 153.411011,450.136780 
	C152.673615,449.561218 151.983063,448.624420 150.294083,449.465790 
	C150.294083,480.986511 150.294083,512.743225 150.292175,545.500000 
M331.404175,323.856720 
	C346.674561,315.544006 362.335052,307.908417 377.629425,297.724060 
	C324.799927,297.724060 273.014496,297.724060 220.911896,297.724060 
	C221.354462,298.614716 221.474442,299.127655 221.789276,299.450653 
	C234.473648,312.464844 247.727310,324.881653 263.122314,334.637695 
	C277.547729,343.779297 292.446136,346.425018 307.411011,335.389862 
	C308.466614,334.611420 309.711517,333.975464 310.966187,333.600189 
	C318.049988,331.481567 324.267670,327.563477 331.404175,323.856720 
M560.474426,334.989136 
	C552.141846,323.963684 543.797302,312.947266 535.479065,301.910980 
	C513.829956,273.187836 491.882050,244.697479 468.922455,217.004166 
	C465.180939,212.491226 460.923889,208.420059 455.549469,204.760864 
	C501.076538,276.447113 546.806091,347.195862 588.059692,422.157623 
	C588.401672,420.153503 588.630920,419.540588 588.589417,418.946594 
	C587.520142,403.647247 588.102844,388.320465 587.830811,373.008331 
	C587.778564,370.070862 586.099915,368.074493 584.465332,365.971222 
	C576.596130,355.845673 568.736084,345.713013 560.474426,334.989136 
M185.577469,126.905510 
	C192.824448,133.038116 200.105591,139.131073 207.297394,145.327728 
	C209.425735,147.161575 211.003677,147.254211 213.282944,145.300827 
	C228.251541,132.472412 241.652298,118.127083 254.493423,103.227356 
	C255.091721,102.533142 256.094360,101.870041 255.490494,100.624107 
	C223.309143,100.624107 191.135605,100.624107 159.137253,100.624107 
	C158.586578,102.226364 159.043228,103.262466 159.666306,103.919998 
	C167.471970,112.157257 176.783585,118.706650 185.577469,126.905510 
M440.929871,522.361755 
	C476.848236,503.604248 513.576050,486.322479 547.888672,464.048462 
	C547.347229,463.860901 547.171448,463.730530 547.066956,463.773590 
	C494.118683,485.580780 441.577728,508.306580 389.581207,532.318787 
	C371.572632,540.635315 354.290680,549.478210 341.533051,565.224304 
	C340.485321,566.517517 339.248291,567.657227 338.099243,568.868286 
	C338.373962,569.190613 338.648682,569.512939 338.923401,569.835327 
	C373.224213,555.256897 407.026001,539.592102 440.929871,522.361755 
M437.141815,431.426788 
	C428.182434,430.634003 419.491455,428.344116 410.698639,426.634338 
	C406.433624,425.804962 403.424988,426.216614 400.832336,430.645264 
	C393.929993,442.435699 388.989044,455.196533 382.182129,467.008301 
	C380.778107,469.444611 381.541382,470.940491 383.930969,472.188080 
	C390.706482,475.725616 397.459747,479.312408 404.121124,483.058685 
	C406.919891,484.632629 408.912445,484.314453 411.067352,481.906830 
	C424.372040,467.041809 437.778046,452.267487 451.124146,437.439423 
	C451.946899,436.525299 453.333405,435.753845 452.526001,433.845520 
	C447.764526,433.098358 442.884369,432.332550 437.141815,431.426788 
M339.837952,548.278992 
	C336.100189,554.672424 332.362396,561.065918 328.624634,567.459412 
	C329.686615,567.552917 330.218658,567.237366 330.703186,566.860779 
	C342.080231,558.017700 351.374664,547.086853 361.030670,536.525635 
	C373.840210,522.515198 386.543732,508.407806 399.376862,494.419220 
	C402.206238,491.335114 402.223969,489.221313 398.287903,487.148102 
	C392.839996,484.278534 387.463440,481.246246 382.238495,477.991302 
	C379.279999,476.148193 377.763611,477.067871 376.376465,479.779755 
	C374.481323,483.484741 372.432465,487.110931 370.458374,490.775696 
	C360.274414,509.681152 351.419678,529.292847 339.837952,548.278992 
M359.499512,341.740387 
	C365.158936,341.704315 370.820068,341.567566 376.477325,341.662201 
	C381.532166,341.746735 384.228241,338.258331 384.437378,334.398193 
	C385.027618,323.503632 384.643738,312.556274 384.643738,300.880646 
	C361.896545,316.531799 337.369354,327.493317 313.881958,340.299744 
	C314.017395,340.779327 314.152832,341.258881 314.288269,341.738434 
	C329.025421,341.738434 343.762543,341.738434 359.499512,341.740387 
M442.072998,170.545624 
	C457.797760,159.321060 473.934753,148.748810 490.821106,139.328949 
	C496.438629,136.195267 498.994202,130.721405 502.002777,123.880814 
	C497.559479,125.515900 494.399109,126.470963 491.411835,127.811768 
	C471.562561,136.720947 452.762878,148.052994 431.497925,153.692520 
	C430.329010,154.002533 429.457336,154.795975 428.937714,155.917618 
	C423.998810,166.578613 419.062164,177.240631 413.826813,188.545990 
	C423.530029,182.367416 432.501129,176.655014 442.072998,170.545624 
M535.526245,155.846237 
	C537.726135,156.395111 539.918457,157.511490 542.828308,155.573700 
	C536.068481,139.135498 531.642090,121.641502 521.674988,105.278572 
	C512.116272,117.538162 505.814545,130.214783 498.643250,143.788940 
	C511.202545,147.933395 522.965088,151.814926 535.526245,155.846237 
M491.010345,122.379929 
	C494.467834,120.643074 498.034668,119.382988 502.000641,119.669434 
	C503.375366,119.768707 504.779999,119.492851 505.562531,118.280251 
	C508.276550,114.074501 510.884979,109.800606 514.058044,104.711548 
	C512.092834,105.120209 511.439606,105.194107 510.826660,105.392426 
	C487.430847,112.961601 464.508942,121.835548 441.542511,130.586090 
	C439.988831,131.178070 438.395844,131.805084 437.645264,133.476395 
	C435.562683,138.113770 433.509155,142.764160 430.813324,148.828308 
	C438.161102,145.978760 444.248932,143.935074 450.067474,141.297394 
	C463.522400,135.198013 476.293518,127.620064 491.010345,122.379929 
M389.441223,100.788193 
	C387.810211,102.239998 388.326569,104.196716 388.372253,105.951660 
	C388.601532,114.764839 388.908203,123.576477 389.264160,132.385574 
	C389.362030,134.807892 388.742218,137.320709 389.290497,138.482590 
	C402.203156,126.063210 415.343384,113.424950 428.819153,100.463982 
	C415.749878,100.463982 402.990326,100.463982 389.441223,100.788193 
M579.069946,150.702942 
	C562.828613,137.508987 548.184753,122.497757 531.176758,108.184059 
	C537.358643,123.890877 543.066345,138.375900 548.756653,152.867752 
	C549.692993,155.252304 551.483459,155.967072 553.901978,155.885071 
	C560.566223,155.659149 567.245789,155.385193 573.650879,153.414200 
	C575.585510,152.818878 578.323242,153.895660 579.069946,150.702942 
M426.206146,193.803635 
	C431.688812,193.888687 437.173798,193.903244 442.653229,194.085739 
	C445.839203,194.191849 448.582123,193.209991 450.868866,191.114166 
	C463.013519,179.983368 473.350067,167.354492 482.804779,152.546249 
	C460.525208,163.922394 441.791016,178.715881 421.954041,191.792084 
	C422.701385,193.555511 424.127106,193.481537 426.206146,193.803635 
M576.658630,209.888336 
	C581.187195,217.332230 585.497192,224.886368 588.137268,233.306183 
	C586.833435,211.084335 588.486633,188.916031 586.682373,166.781052 
	C581.698486,174.045822 575.685974,179.990753 569.189941,185.429703 
	C565.838257,188.235931 565.646606,191.020203 567.804077,194.564026 
	C570.743958,199.392929 573.471863,204.350830 576.658630,209.888336 
M535.108826,161.466599 
	C525.044250,159.363449 515.471741,155.466507 504.283966,152.318497 
	C514.666077,163.583893 524.024109,173.744827 533.392456,183.896179 
	C534.760254,185.378296 536.050354,186.823761 538.509094,185.855499 
	C542.105957,184.439072 545.737183,185.408890 549.322388,186.177002 
	C551.219116,186.583374 553.142090,187.433533 555.182983,185.423813 
	C553.316589,181.423843 551.010376,177.522690 549.643616,173.316284 
	C547.402649,166.419678 543.210022,162.336411 535.108826,161.466599 
M238.766342,336.739014 
	C244.262558,343.103210 251.516190,341.343872 258.598572,341.071869 
	C242.479828,329.013428 228.206818,315.015106 212.889557,300.713745 
	C211.928741,306.824463 212.436691,311.448425 212.497025,316.059845 
	C212.540207,319.360260 214.014877,321.474121 217.033737,323.110107 
	C224.343964,327.071594 231.459915,331.395233 238.766342,336.739014 
M465.497009,573.697693 
	C467.659088,573.699280 469.821167,573.700867 471.983246,573.702393 
	C482.779755,573.710022 482.970490,573.385254 482.082581,562.453918 
	C481.818146,559.198120 480.454529,557.799255 477.391327,558.382996 
	C473.160736,559.189270 468.962769,560.192444 464.785645,561.248901 
	C449.234894,565.181824 433.698334,569.170898 418.156464,573.138855 
	C418.188873,573.324768 418.221283,573.510620 418.253693,573.696472 
	C433.668427,573.696472 449.083191,573.696472 465.497009,573.697693 
M569.441345,222.057892 
	C572.876465,225.445877 576.311584,228.833847 580.419922,232.885818 
	C580.678589,228.849579 579.294373,226.682373 578.320618,224.457794 
	C574.705078,216.197952 569.685303,208.697052 565.331970,200.834335 
	C560.996338,193.003433 551.925476,189.522583 542.033508,192.584244 
	C550.069519,203.448273 560.194336,211.892822 569.441345,222.057892 
M236.268341,513.265259 
	C229.193451,507.879181 222.118561,502.493134 214.094925,496.384827 
	C214.094925,504.598419 214.072952,511.556274 214.107086,518.513855 
	C214.118668,520.877014 215.600174,521.606934 217.742859,521.597351 
	C225.739014,521.561646 233.735580,521.591797 241.731339,521.523376 
	C242.784424,521.514343 244.161285,521.669128 244.567947,519.692810 
	C242.051102,517.753723 239.433197,515.736755 236.268341,513.265259 
M581.646484,161.757965 
	C582.712341,159.573196 581.480408,159.554230 579.877380,159.878113 
	C576.668213,160.526535 573.458435,161.172012 570.201172,161.828323 
	C570.231018,165.483688 569.946533,168.876801 565.910156,170.046341 
	C560.764404,171.537338 557.463501,169.058395 555.017822,164.544037 
	C554.618225,171.435181 557.733521,176.820908 561.530212,183.067810 
	C567.465637,174.781784 577.292786,171.466644 581.646484,161.757965 
M457.813721,190.213776 
	C456.989319,191.584763 455.496185,192.644928 455.807343,194.944199 
	C457.351593,195.959000 458.791321,197.557922 461.211578,197.973572 
	C469.234772,184.327881 477.096283,170.763245 484.400024,155.665680 
	C475.229553,167.585861 466.736145,178.625961 457.813721,190.213776 
z"/>
</svg>